# xmcd
#
# Track frame offsets: 
#        150
#        13592
#        27985
#        41820
#        56087
#        70504
#        85203
#        99749
#        113955
#        128596
#        143855
#        157682
#        172489
#        185340
#        198060
#        210882
#        225216
#        237855
#        253954
#        268845
#        282902
#        293932
#        305772
#        318065
#
# Disc length: 4382 seconds
#
# Revision: 0
# Processed by: cddbd v1.5.2PL0 Copyright (c) Steve Scherf et al.
# Submitted via: ExactAudioCopyFreeDBPlugin 1.0
#
DISCID=52111c18
DTITLE=Texas Alexander and His Circle - 1927-1951 Authentic Early Texas 
DTITLE=Country Blues CD 4
DYEAR=2017
DGENRE=Texas Blues
TTITLE0=New to Sixteen Blues
TTITLE1=Two String Blues
TTITLE2=Rolled From Side to Side Blues
TTITLE3=Hurry Blues
TTITLE4=Little Hat Blues
TTITLE5=Corpus Blues
TTITLE6=Kentucky Blues
TTITLE7=Bye Bye Baby Blues
TTITLE8=Cross the Water Blues
TTITLE9=Cherry Street Blues
TTITLE10=Dreaming Blues
TTITLE11=Texas Blues
TTITLE12=Leavin' Home
TTITLE13=Goin' Back to My Baby
TTITLE14=Some Low Down Groundhog Blues
TTITLE15=All Worn Out and Dry Blues
TTITLE16=Army Mule in No Man's Land
TTITLE17=Traveling Man
TTITLE18=Drunkard's Special
TTITLE19=The Elder's He's My Man
TTITLE20=Locked in Jail Blues
TTITLE21=You've Gotta Lay Down Mama
TTITLE22=Sam's Comin' Home
TTITLE23=Sam's Boogie 
EXTD=
EXTT0=
EXTT1=
EXTT2=
EXTT3=
EXTT4=
EXTT5=
EXTT6=
EXTT7=
EXTT8=
EXTT9=
EXTT10=
EXTT11=
EXTT12=
EXTT13=
EXTT14=
EXTT15=
EXTT16=
EXTT17=
EXTT18=
EXTT19=
EXTT20=
EXTT21=
EXTT22=
EXTT23=
PLAYORDER=
